<?xml version="1.0" standalone="no"?>
<!DOCTYPE svg PUBLIC "-//W3C//DTD SVG 20010904//EN"
 "http://www.w3.org/TR/2001/REC-SVG-20010904/DTD/svg10.dtd">
<svg version="1.0" xmlns="http://www.w3.org/2000/svg"
 width="1106.000000pt" height="896.000000pt" viewBox="0 0 1106.000000 896.000000"
 preserveAspectRatio="xMidYMid meet">
<metadata>
Created by potrace 1.16, written by Peter Selinger 2001-2019
</metadata>
<g transform="translate(0.000000,896.000000) scale(0.100000,-0.100000)"
fill="#000000" stroke="none">
<path d="M5135 8390 c-660 -40 -1317 -245 -1880 -585 -310 -187 -535 -364
-795 -624 -443 -443 -743 -904 -960 -1476 -132 -347 -219 -735 -251 -1122 -11
-136 -7 -605 7 -758 l6 -60 -30 45 c-48 75 -47 75 -216 75 -166 0 -186 -6
-223 -62 -17 -25 -18 -69 -18 -598 0 -629 -3 -600 62 -642 39 -26 267 -26 306
0 49 32 61 62 59 149 -2 97 10 99 44 8 15 -41 37 -77 59 -98 35 -32 35 -32
142 -32 60 0 114 -4 120 -8 7 -5 51 -84 97 -178 327 -661 813 -1212 1426
-1618 178 -118 263 -167 446 -259 975 -488 2110 -572 3139 -233 834 275 1527
773 2052 1473 131 174 247 362 368 596 112 216 94 201 213 176 51 -10 76 -10
140 1 84 14 80 14 262 9 104 -3 130 -1 157 14 66 35 68 42 71 338 5 406 -9
488 -105 590 -60 64 -141 105 -240 122 l-78 14 1 69 c0 38 6 127 12 197 7 70
12 226 12 346 0 824 -234 1594 -695 2286 -821 1232 -2234 1934 -3710 1845z
m640 -775 c1231 -143 2284 -940 2755 -2086 122 -297 197 -596 236 -934 32
-286 1 -889 -49 -952 -7 -10 -64 -13 -223 -13 -175 0 -221 -3 -255 -17 -39
-15 -44 -15 -88 1 -42 15 -89 16 -393 14 -341 -3 -347 -3 -377 -25 -47 -35
-54 -28 -25 27 23 43 26 60 22 120 -3 57 -9 77 -33 112 -91 130 -308 130 -400
0 -37 -54 -47 -154 -21 -216 13 -31 15 -58 10 -132 -4 -52 -10 -94 -14 -94 -4
0 -21 22 -39 49 -68 105 -177 159 -346 171 -75 5 -124 14 -155 27 -41 18 -260
88 -450 143 -41 12 -93 31 -115 43 -28 14 -58 20 -102 19 -46 0 -63 3 -67 14
-11 28 12 51 97 98 321 180 551 451 644 756 27 90 45 113 122 160 44 26 144
122 187 180 61 83 117 219 135 328 19 124 -22 223 -118 278 -28 17 -62 28 -85
29 -41 0 -47 11 -28 60 22 59 60 225 68 300 13 116 -3 495 -23 570 -44 159
-123 264 -241 321 -53 25 -75 42 -78 57 -3 12 -9 54 -15 93 -16 108 -48 179
-108 244 -65 71 -122 97 -266 121 -256 44 -417 61 -634 66 -316 8 -466 -14
-632 -94 -66 -31 -95 -56 -265 -227 -137 -137 -198 -205 -215 -241 -13 -27
-50 -85 -82 -127 -31 -42 -66 -102 -78 -133 -46 -124 -52 -296 -12 -385 16
-37 19 -58 14 -126 -7 -103 10 -218 53 -361 19 -62 34 -123 34 -136 0 -20 -4
-23 -29 -19 -45 6 -100 -16 -149 -62 -57 -52 -72 -88 -72 -174 0 -93 21 -169
80 -289 61 -125 166 -242 270 -303 46 -27 71 -48 77 -67 6 -15 25 -68 43 -118
63 -175 167 -333 306 -465 109 -103 310 -241 397 -271 52 -18 77 -44 77 -80
l0 -30 -31 17 c-39 20 -74 14 -149 -25 -30 -16 -136 -54 -235 -85 -99 -30
-220 -69 -269 -86 -50 -16 -93 -30 -96 -30 -4 0 -10 22 -13 49 -7 62 -29 105
-64 128 -36 24 -229 31 -288 11 -50 -17 -85 -66 -85 -120 0 -41 -15 -61 -88
-115 -39 -30 -51 -29 -120 6 -84 42 -152 54 -278 49 -191 -8 -307 -71 -390
-214 -10 -17 -14 -14 -44 34 -40 66 -111 123 -187 153 -73 27 -256 38 -342 19
-121 -26 -249 -114 -281 -191 -7 -16 -16 -29 -21 -29 -5 0 -9 86 -9 191 0 210
-5 230 -62 263 -59 36 -62 47 -66 306 -6 347 16 566 92 880 225 941 873 1764
1739 2208 435 224 843 335 1372 376 97 7 441 -4 570 -19z m-353 -573 c28 -27
44 -50 39 -55 -5 -5 -46 -4 -97 2 -100 12 -197 14 -207 4 -4 -3 10 -14 31 -24
49 -23 89 -56 79 -65 -8 -9 -236 43 -251 57 -6 5 4 9 25 9 18 0 41 5 49 10 13
9 12 12 -4 25 -19 14 -18 15 10 16 16 0 80 4 142 8 126 8 160 23 93 41 -51 14
-45 35 8 25 24 -4 52 -22 83 -53z m717 -479 c138 -47 185 -129 226 -393 12
-76 25 -124 50 -175 30 -60 35 -80 35 -142 0 -40 -4 -74 -9 -77 -5 -4 -51 5
-103 18 -51 13 -110 27 -130 31 -78 13 -32 29 106 38 38 2 35 4 -70 51 -60 27
-127 51 -150 53 -78 10 -310 -73 -438 -157 -34 -21 -93 -53 -133 -69 -66 -28
-82 -31 -182 -31 -124 0 -159 11 -263 82 -125 84 -371 173 -458 165 -39 -3
-91 -24 -235 -92 l-30 -14 50 0 c66 -1 125 -12 125 -22 0 -4 -17 -11 -37 -15
-21 -3 -81 -16 -133 -29 -52 -12 -99 -20 -104 -17 -15 9 1 114 28 178 14 36
30 102 37 155 28 233 114 385 245 432 124 44 300 46 632 6 l192 -23 233 32
c127 18 248 34 267 36 62 7 202 -5 249 -21z m-9 -824 c84 -13 144 -42 178 -87
54 -71 38 -284 -33 -441 -58 -126 -148 -171 -339 -171 -121 0 -200 27 -271 91
-88 81 -155 243 -155 373 0 100 44 150 169 196 45 17 106 34 134 39 74 12 241
13 317 0z m-1208 -13 c184 -36 281 -126 263 -246 -4 -25 -9 -49 -12 -53 -3 -4
-17 19 -33 51 -58 123 -193 178 -467 189 -146 6 -195 -2 -207 -33 -8 -21 38
-46 81 -43 73 4 73 4 73 -53 1 -96 56 -175 138 -198 52 -14 81 -12 127 9 54
25 84 60 106 123 9 29 22 54 28 56 15 5 104 -81 126 -122 18 -34 18 -37 1 -93
-37 -118 -108 -202 -211 -250 -56 -26 -69 -28 -190 -28 -129 0 -131 0 -200 35
-60 30 -75 43 -103 90 -64 107 -107 311 -88 414 15 77 95 136 211 155 82 14
278 12 357 -3z m1761 -95 c69 -44 91 -94 84 -191 -9 -137 -80 -283 -196 -404
-53 -55 -134 -116 -154 -116 -5 0 -7 10 -4 23 3 12 13 82 22 156 13 118 32
225 78 446 23 114 80 143 170 86z m-2534 -4 c6 -8 14 -29 17 -48 4 -19 16 -51
26 -72 11 -22 17 -41 15 -44 -3 -2 -23 5 -46 16 -22 12 -50 21 -61 21 -29 0
-76 -26 -84 -45 -12 -32 -6 -102 15 -164 24 -70 109 -205 141 -222 32 -17 44
4 22 39 -73 115 -79 128 -79 172 0 25 4 53 9 64 8 16 7 17 -13 7 -12 -7 -24
-25 -28 -42 -3 -16 -9 -29 -14 -29 -5 0 -9 2 -9 4 0 2 -7 32 -16 66 -14 56
-14 63 0 86 14 20 25 24 64 24 54 0 88 -19 103 -59 17 -44 48 -208 64 -337 9
-68 18 -131 21 -139 16 -41 -62 1 -140 74 -140 133 -246 374 -222 505 8 43 58
104 101 122 39 17 100 18 114 1z m1239 -83 c31 -21 41 -45 68 -153 28 -112 86
-239 138 -298 90 -104 289 -147 484 -107 100 21 174 56 212 102 36 43 79 152
110 272 12 47 28 92 37 100 14 13 15 12 10 -10 -24 -101 -69 -349 -77 -424
-31 -269 -93 -436 -227 -615 -98 -130 -212 -232 -380 -337 -122 -77 -216 -105
-373 -111 -201 -8 -315 26 -505 153 -200 133 -334 281 -430 479 -63 128 -89
216 -111 375 -8 63 -31 189 -50 280 -19 90 -34 169 -34 175 1 23 23 -32 45
-110 32 -118 81 -219 125 -259 78 -70 255 -108 406 -87 47 7 110 21 140 32
121 45 204 164 254 362 34 137 46 164 79 182 34 19 52 18 79 -1z m203 -1669
c23 -98 28 -138 20 -154 -35 -65 -368 -82 -442 -23 -20 17 -20 21 -9 82 6 36
15 76 19 90 l7 25 124 -3 c69 -1 148 2 175 7 80 15 98 11 106 -24z m1628 -71
c26 -22 31 -33 31 -70 0 -53 -30 -88 -84 -98 -91 -17 -162 65 -122 142 21 41
41 51 98 52 36 0 54 -6 77 -26z m-1389 -24 c19 -10 78 -29 130 -43 145 -40
315 -93 336 -106 15 -8 -11 -10 -106 -5 -114 5 -128 4 -157 -15 -52 -33 -68
-66 -66 -138 1 -35 -2 -63 -8 -63 -5 0 -19 17 -32 38 -61 95 -189 172 -300
180 -75 5 -82 18 -22 39 50 17 101 57 120 94 9 16 12 29 8 29 -5 0 -1 5 7 10
17 11 38 6 90 -20z m-791 -19 c29 -70 121 -125 229 -137 66 -7 79 -18 35 -28
-16 -4 -52 -19 -81 -33 l-52 -26 -35 41 c-47 54 -86 66 -194 58 -147 -11 -403
-14 -393 -4 5 5 69 26 143 48 164 47 245 75 273 94 34 24 62 20 75 -13z
m-3921 -18 c20 -18 292 -666 315 -750 6 -24 14 -43 17 -43 3 0 17 35 31 78 48
141 288 706 305 719 23 17 185 18 202 1 17 -17 17 -1029 0 -1046 -14 -14 -126
-16 -148 -2 -13 8 -15 53 -18 282 -2 150 1 320 6 378 8 95 4 147 -11 124 -2
-5 -14 -40 -26 -79 -31 -106 -259 -648 -278 -662 -9 -7 -38 -13 -63 -13 -36 0
-51 5 -67 23 -23 25 -240 546 -273 655 -12 39 -25 74 -29 77 -4 2 -6 -166 -3
-374 3 -277 2 -383 -7 -399 -10 -19 -20 -22 -79 -22 -40 0 -73 5 -80 12 -17
17 -17 1029 0 1046 7 7 45 12 99 12 68 0 91 -4 107 -17z m3062 -53 c11 -7 15
-29 15 -89 0 -44 5 -84 10 -89 6 -6 41 -12 78 -14 45 -3 71 -9 78 -19 13 -21
11 -103 -3 -117 -7 -7 -39 -12 -72 -12 -34 0 -68 -5 -76 -10 -12 -8 -15 -40
-16 -177 -1 -92 1 -192 3 -220 7 -70 35 -99 104 -105 59 -6 69 -17 69 -75 0
-67 -16 -76 -129 -71 -101 5 -140 18 -177 60 -47 51 -49 61 -52 323 -2 154 -8
255 -14 262 -6 7 -30 13 -54 13 -49 0 -64 17 -64 72 0 50 18 68 75 76 l50 7 5
85 c3 47 9 91 13 98 10 14 134 17 157 2z m-1442 -202 c30 -11 71 -37 92 -58
65 -65 70 -95 70 -425 0 -213 -3 -294 -12 -303 -14 -14 -126 -16 -147 -3 -11
7 -13 25 -8 77 5 66 4 68 -12 46 -80 -114 -122 -137 -251 -137 -105 0 -150 16
-201 72 -81 87 -86 222 -11 305 63 70 131 92 318 104 60 4 117 11 127 16 12 6
17 21 17 49 0 87 -53 132 -155 132 -61 0 -85 -9 -154 -58 -50 -36 -171 -35
-171 1 0 28 39 91 78 126 92 84 279 109 420 56z m840 6 c61 -17 124 -69 153
-125 38 -75 18 -96 -81 -87 -39 4 -58 13 -89 41 -69 62 -162 71 -233 23 -53
-35 -51 -104 5 -132 17 -10 92 -32 166 -50 158 -39 214 -69 248 -133 27 -51
31 -133 9 -185 -61 -147 -294 -211 -508 -140 -64 21 -132 86 -149 144 -16 53
-7 60 77 60 57 0 65 -3 110 -40 56 -46 121 -64 188 -51 86 16 129 66 106 122
-15 36 -52 52 -184 84 -222 52 -286 106 -286 242 0 191 219 298 468 227z
m2082 -1 c96 -33 171 -107 214 -211 14 -34 20 -80 24 -167 3 -104 1 -128 -18
-184 -57 -169 -178 -253 -365 -253 -181 0 -301 79 -361 237 -15 40 -19 76 -19
185 0 130 1 137 31 200 17 36 46 83 63 103 38 43 138 95 207 107 61 11 165 3
224 -17z m3968 0 c65 -20 134 -78 158 -135 16 -38 19 -79 22 -335 2 -201 0
-298 -8 -312 -9 -18 -20 -21 -79 -21 -89 0 -97 9 -84 93 6 34 9 63 8 65 -2 2
-20 -23 -41 -55 -56 -83 -109 -108 -229 -108 -77 0 -98 4 -140 25 -123 63
-164 235 -82 342 58 75 140 104 333 115 105 6 117 8 130 28 20 30 4 99 -29
132 -54 55 -171 52 -246 -6 -43 -33 -51 -36 -116 -36 -64 0 -70 2 -73 22 -4
30 31 95 70 128 93 79 261 103 406 58z m-4610 5 c7 -7 12 -40 12 -79 0 -78 -2
-79 -93 -79 -77 0 -138 -28 -169 -78 -22 -35 -23 -48 -28 -295 -4 -214 -8
-259 -20 -267 -22 -14 -144 -12 -158 2 -17 17 -17 769 0 786 17 17 142 16 157
-2 8 -10 9 -35 3 -85 -5 -39 -5 -71 -1 -71 5 0 22 29 39 64 27 57 36 67 82 90
57 28 154 36 176 14z m1635 -8 c135 -51 210 -191 211 -395 1 -266 -130 -423
-344 -413 -122 5 -172 37 -233 148 -10 18 -19 31 -21 29 -3 -2 0 -44 6 -94 14
-130 7 -323 -12 -335 -22 -14 -144 -12 -158 2 -17 17 -17 1039 0 1056 18 18
142 16 158 -3 12 -14 8 -98 -6 -147 -11 -38 12 -15 40 38 48 92 120 132 238
133 44 1 86 -6 121 -19z m578 -29 c4 -18 6 -195 5 -392 -1 -308 -3 -361 -16
-369 -8 -5 -45 -10 -82 -10 -56 0 -69 3 -78 19 -14 27 -14 745 1 772 9 18 19
19 87 17 l76 -3 7 -34z m859 20 c14 -27 13 -81 -3 -111 -14 -27 -352 -456
-398 -505 l-28 -30 205 3 c150 3 209 1 219 -8 18 -15 20 -111 3 -128 -13 -13
-604 -18 -624 -4 -13 8 -17 29 -15 79 1 26 37 77 187 265 103 128 204 251 225
273 l38 40 -203 -4 c-139 -2 -210 1 -225 8 -17 10 -21 21 -21 64 0 29 5 58 12
65 9 9 93 12 315 12 289 0 303 -1 313 -19z m838 7 c15 -15 16 -93 0 -121 -16
-31 -333 -433 -380 -482 -21 -23 -38 -43 -38 -45 0 -3 92 -4 204 -2 235 4 236
3 236 -77 0 -26 -5 -52 -12 -59 -17 -17 -619 -17 -636 0 -16 16 -15 77 2 109
15 29 353 453 404 508 18 18 32 34 32 35 0 0 -93 0 -207 -2 -115 -2 -214 1
-221 6 -18 12 -26 81 -13 115 l11 27 303 0 c222 0 306 -3 315 -12z m-701 -238
c30 -16 57 -20 130 -20 50 0 94 -4 98 -10 3 -5 -9 -26 -28 -47 -18 -21 -70
-84 -116 -140 -45 -57 -89 -103 -97 -103 -8 0 -29 8 -47 17 -22 12 -60 17
-125 19 -51 1 -96 4 -99 8 -4 3 7 21 24 39 16 17 67 79 113 137 73 92 97 119
108 120 1 0 19 -9 39 -20z m-711 -20 c52 0 94 -4 94 -9 0 -13 -231 -301 -242
-301 -9 0 -11 290 -2 314 4 11 11 13 31 5 13 -5 67 -9 119 -9z m-3096 -20 c6
-12 9 -66 8 -132 -2 -91 -6 -113 -18 -116 -37 -7 -52 22 -65 128 -15 111 -12
125 28 133 12 2 25 5 29 6 4 0 12 -8 18 -19z m568 -2 c8 -8 12 -46 12 -102 1
-289 135 -480 380 -542 86 -22 239 -14 328 16 82 29 172 96 216 162 20 29 36
48 37 43 1 -6 2 -98 3 -205 1 -213 5 -229 63 -267 23 -15 47 -18 159 -16 l133
3 3 -37 c3 -33 29 -65 42 -52 6 6 41 181 51 256 4 28 12 58 18 66 14 17 232
33 242 17 6 -10 47 -275 65 -424 6 -49 18 -102 26 -117 8 -16 11 -29 6 -29
-15 0 -84 50 -135 98 -49 45 -49 45 -105 38 -168 -19 -178 -23 -210 -87 -26
-52 -66 -52 -117 1 -44 45 -55 48 -80 20 -17 -19 -17 -23 0 -130 5 -34 4 -36
-60 -77 -112 -73 -122 -71 -246 66 -23 26 -27 36 -17 42 7 5 17 9 22 9 19 0
146 63 146 73 0 5 -11 22 -25 39 -30 35 -35 84 -7 73 74 -31 127 -28 200 11
25 13 53 24 63 24 10 0 21 4 24 10 11 17 -48 23 -94 10 -25 -7 -64 -15 -87
-18 -38 -3 -43 -1 -73 37 -18 23 -39 41 -47 41 -9 0 -36 -16 -61 -35 -25 -19
-60 -37 -79 -40 -19 -3 -50 -8 -71 -11 -24 -4 -49 -18 -74 -44 -47 -47 -118
-68 -182 -52 -23 6 -53 13 -67 16 -31 7 -102 64 -95 77 4 5 24 9 45 9 22 0 75
12 117 26 64 22 83 24 108 15 48 -17 115 -25 115 -13 0 13 -21 21 -100 38 -86
19 -117 17 -169 -6 -24 -11 -55 -20 -70 -20 -14 0 -47 -7 -73 -17 l-47 -17
-62 33 c-34 18 -63 30 -66 28 -18 -19 216 -167 263 -167 23 0 16 -13 -18 -37
-31 -22 -33 -22 -53 -4 -11 10 -64 48 -119 85 -87 58 -104 66 -146 66 -61 0
-152 -32 -216 -75 -43 -30 -58 -35 -105 -34 -30 1 -75 -4 -102 -11 -62 -16
-132 -9 -191 20 -26 12 -48 21 -50 19 -2 -2 -7 -22 -12 -44 -9 -36 -14 -41
-54 -53 -141 -40 -194 -59 -276 -97 -50 -23 -114 -48 -142 -54 -27 -7 -60 -23
-72 -36 l-22 -24 27 -35 c16 -22 22 -34 13 -31 -12 5 -15 0 -12 -20 2 -24 1
-25 -14 -12 -73 66 -159 31 -246 -100 -15 -22 -40 -54 -56 -70 -16 -15 -30
-33 -30 -40 0 -7 27 -31 60 -53 60 -41 85 -66 33 -33 -302 190 -639 502 -871
809 -34 45 -100 139 -147 210 l-85 129 84 7 c47 3 89 9 93 11 5 3 56 1 113 -4
141 -12 203 -4 245 32 20 18 35 43 39 64 4 19 9 35 12 35 4 0 28 -20 56 -44
84 -77 216 -113 376 -103 195 11 336 93 397 231 14 32 25 45 28 36 26 -82 46
-118 88 -164 58 -64 59 -69 30 -268 -11 -73 -27 -189 -36 -258 -9 -69 -23
-147 -30 -174 -8 -27 -13 -52 -10 -55 3 -3 24 13 46 35 39 39 40 43 49 135 15
141 60 448 71 475 9 25 9 25 116 18 68 -4 112 -11 118 -19 6 -7 26 -97 44
-199 30 -166 37 -189 59 -207 32 -25 62 -25 69 1 4 14 9 17 17 11 6 -5 52 -14
101 -19 101 -11 124 -5 185 47 37 31 37 35 3 45 -16 5 -29 -1 -52 -23 -34 -33
-64 -44 -126 -45 -34 -1 -40 2 -43 21 -3 18 4 24 35 32 242 63 483 103 509 84
6 -4 16 -18 23 -30 6 -13 19 -23 27 -23 16 0 12 33 -8 58 -17 20 52 15 88 -7
32 -20 57 -15 52 10 -4 19 109 24 222 10 51 -7 108 -8 142 -3 31 5 81 5 110 2
55 -8 118 -2 118 10 0 8 -115 26 -270 41 -345 34 -1021 -58 -1105 -151 -24
-27 -53 -25 -64 3 -5 12 -21 92 -36 177 -31 180 -27 207 28 196 183 -35 306
-30 358 14 l34 28 5 277 c5 276 5 277 29 296 26 21 81 25 99 7z m1942 -493 c0
-68 20 -109 63 -132 46 -25 243 -25 308 1 44 17 49 17 79 1 28 -14 75 -16 394
-16 240 0 372 4 392 11 21 8 40 8 71 -1 23 -6 56 -9 73 -7 17 3 29 2 28 -1
-33 -68 -258 -386 -352 -496 -219 -256 -517 -519 -751 -662 -44 -27 -92 -57
-107 -67 -16 -10 -28 -16 -28 -13 0 3 24 21 53 40 95 63 147 116 147 148 0 39
-71 163 -123 217 -96 98 -224 123 -259 49 -15 -31 -15 -31 -27 -9 -6 12 -9 33
-5 47 5 22 12 26 38 25 71 -4 70 2 -9 60 -74 55 -100 111 -120 265 -8 66 -25
180 -36 254 -11 73 -17 141 -14 150 3 9 34 42 70 74 36 32 72 72 80 88 23 44
35 35 35 -26z m-1116 -587 c-28 -45 -67 -99 -76 -104 -6 -4 -47 -8 -92 -9 -45
-1 -96 -6 -113 -10 -29 -7 -33 -5 -33 13 0 22 8 25 116 52 23 5 58 24 79 40
29 23 48 30 82 30 33 0 42 -3 37 -12z m-765 -133 c34 -38 61 -43 101 -20 49
28 80 19 137 -40 61 -63 67 -85 22 -85 -21 0 -37 -8 -52 -26 -48 -57 -56 -62
-108 -69 -83 -10 -142 -32 -187 -70 -36 -32 -72 -45 -72 -28 0 4 17 27 39 53
21 25 50 68 64 95 14 28 42 61 61 75 20 14 36 28 36 33 0 16 -43 6 -73 -17
-34 -26 -134 -56 -185 -56 -38 0 -62 31 -62 78 0 29 5 35 43 52 23 11 58 20
77 20 19 0 53 9 75 19 52 25 47 26 84 -14z m712 -60 c-2 -5 -24 -18 -49 -27
-58 -22 -60 -24 -29 -49 38 -29 35 -49 -8 -49 -18 0 -56 -5 -83 -10 -63 -14
-102 -1 -102 34 0 31 22 39 70 26 21 -6 46 -7 55 -4 16 6 15 9 -6 25 l-24 18
55 26 c54 25 129 31 121 10z m741 -15 c21 -10 37 -10 72 -1 94 23 181 7 206
-38 17 -34 12 -79 -11 -91 -40 -22 -164 -12 -181 14 -5 7 -41 10 -95 10 l-88
-2 59 10 c43 8 72 7 112 -2 50 -12 158 -9 172 5 12 12 -24 25 -70 25 -26 0
-66 7 -88 16 -29 12 -53 14 -83 10 -23 -4 -63 -11 -89 -15 -57 -9 -65 -15 -48
-36 12 -14 2 -16 -96 -13 -60 2 -127 -1 -149 -5 l-40 -8 33 22 c19 12 38 33
43 45 7 19 16 24 44 24 21 0 43 8 54 19 10 10 25 21 32 24 24 10 183 0 211
-13z m-2440 -120 c78 -19 85 -19 134 -3 49 15 55 15 101 -2 26 -9 76 -18 111
-20 36 -2 80 -12 105 -24 23 -11 54 -23 70 -26 34 -9 35 -23 2 -31 -14 -3 -39
-24 -56 -45 -44 -55 -57 -61 -126 -48 -86 16 -169 53 -206 92 -25 27 -44 37
-82 42 -28 4 -62 14 -77 21 -15 8 -53 14 -85 14 -32 0 -78 6 -103 14 l-44 13
29 11 c47 17 137 14 227 -8z m2793 -121 c42 -25 41 -45 -4 -42 -19 0 -31 -3
-28 -10 3 -10 91 -63 152 -91 l29 -14 -34 -14 c-53 -22 -62 -40 -69 -130 -5
-71 -9 -83 -31 -99 -28 -21 -110 -39 -175 -39 -50 0 -58 -8 -88 -87 -20 -50
-28 -61 -67 -80 -96 -48 -508 -153 -655 -167 -58 -5 -59 -5 -25 7 32 13 34 17
37 63 3 56 21 140 35 167 14 27 175 98 225 100 33 2 48 -4 70 -25 42 -40 77
-51 116 -34 40 16 154 137 163 172 4 14 1 51 -6 80 -12 50 -12 57 6 81 14 18
44 35 92 51 54 18 86 37 132 78 33 30 67 54 75 54 8 0 30 -10 50 -21z m-1274
-11 c44 -23 48 -23 200 -12 79 5 107 3 149 -11 42 -14 70 -16 131 -11 73 6 82
5 118 -19 50 -31 66 -58 51 -85 -6 -11 -14 -20 -19 -20 -4 0 -26 -17 -49 -38
-41 -38 -42 -41 -42 -103 0 -105 -34 -117 -109 -39 -27 28 -56 50 -65 50 -9 0
-33 8 -54 19 -20 10 -66 22 -100 26 -63 7 -64 7 -60 -16 2 -16 13 -26 33 -33
61 -18 65 -20 56 -35 -8 -13 -15 -13 -53 -1 -24 8 -49 14 -55 13 -14 -1 -15 3
-18 64 -2 49 -21 81 -63 106 l-30 17 5 -57 c5 -50 2 -61 -16 -77 -21 -19 -24
-19 -94 -2 -52 12 -80 14 -98 7 -13 -5 -18 -10 -10 -10 8 -1 45 -16 82 -33 51
-25 67 -38 66 -53 -2 -17 7 -21 61 -27 80 -9 222 -61 179 -66 -15 -2 -49 4
-75 12 -118 39 -256 68 -295 62 -65 -11 -165 -70 -254 -150 -45 -41 -91 -77
-103 -81 -11 -4 -51 1 -88 10 l-67 17 -93 -31 c-109 -37 -112 -37 -146 -10
-28 22 -36 55 -11 45 21 -8 31 20 15 39 -23 27 -49 16 -131 -57 l-81 -71 -73
17 c-40 9 -81 23 -91 30 -15 12 -10 13 35 9 48 -3 52 -2 47 15 -4 13 3 29 22
48 15 16 40 45 54 65 19 26 43 41 85 56 62 22 157 38 210 34 18 -1 49 3 69 11
30 10 38 10 41 1 7 -20 43 -15 90 12 54 32 63 63 35 114 -27 48 -17 69 24 49
25 -12 70 -14 185 -9 9 1 43 28 76 62 59 60 98 79 151 71 31 -5 27 -19 -8 -26
-16 -3 -44 -9 -60 -12 -29 -5 -58 -39 -46 -52 3 -3 29 5 56 18 27 13 52 21 55
19 2 -3 -4 -22 -15 -42 -23 -42 -24 -47 -10 -47 5 0 23 19 40 43 48 68 102
117 143 129 45 13 48 26 7 34 -16 4 -35 13 -41 20 -17 21 3 18 52 -8z m-1356
-67 c153 -50 150 -48 160 -126 4 -27 9 -58 12 -68 4 -14 -18 -6 -94 34 -54 28
-102 55 -107 60 -13 12 -36 11 -36 -1 0 -25 69 -84 137 -116 41 -20 72 -41 70
-47 -5 -16 -57 -28 -89 -21 -15 3 -50 25 -76 49 -27 25 -80 62 -118 84 -54 31
-68 44 -67 60 2 12 -1 21 -5 22 -4 0 -18 2 -32 3 -19 3 -32 -6 -55 -38 -31
-41 -65 -59 -65 -34 0 24 74 88 100 87 74 -1 190 50 190 84 0 9 2 9 8 0 4 -7
35 -21 67 -32z m1694 -387 c-9 -8 -22 -16 -30 -17 -22 -4 -40 -18 -34 -27 10
-17 -7 -61 -21 -56 -8 3 -14 2 -14 -2 -1 -23 -36 -44 -102 -61 -41 -10 -83
-23 -93 -29 -15 -8 -25 -3 -52 26 -18 19 -32 36 -31 38 10 9 222 74 242 74 15
0 26 4 26 8 0 5 18 16 40 26 22 10 40 22 40 27 0 5 10 9 22 9 20 0 21 -1 7
-16z"/>
<path d="M5910 5665 c-145 -28 -204 -51 -264 -105 -57 -53 -91 -117 -84 -160
3 -20 8 -16 40 32 32 49 93 108 111 108 3 0 11 -19 17 -42 33 -126 147 -189
258 -143 77 33 111 84 120 184 l7 66 79 5 79 5 -25 30 c-26 30 -26 30 -145 32
-67 1 -150 -4 -193 -12z"/>
<path d="M6538 5496 c-27 -20 -22 -23 36 -18 45 4 57 1 76 -18 18 -18 20 -28
15 -63 -4 -23 -13 -55 -20 -72 l-12 -30 -15 35 c-8 19 -23 42 -33 50 -17 14
-18 13 -11 -10 25 -83 19 -118 -34 -198 -42 -63 -50 -92 -24 -92 64 0 198 275
177 362 -11 45 -43 68 -92 68 -25 0 -54 -7 -63 -14z"/>
<path d="M5140 4958 c0 -53 36 -107 98 -148 105 -69 217 -46 305 63 30 36 47
110 29 121 -6 4 -19 -12 -30 -36 -46 -103 -143 -162 -227 -138 -49 14 -140
106 -150 150 -10 44 -25 37 -25 -12z"/>
<path d="M4870 4849 c-49 -30 -80 -60 -80 -79 0 -8 44 -61 98 -116 192 -198
277 -239 493 -239 124 0 125 0 201 38 54 26 104 63 170 124 116 108 122 117
108 143 -14 26 -32 25 -56 -1 -39 -43 -73 -53 -207 -57 -143 -5 -284 7 -499
44 -157 26 -192 36 -220 61 -24 22 -23 27 13 68 35 40 29 44 -21 14z m142
-178 c165 -39 535 -74 628 -61 88 14 95 13 79 -7 -20 -24 -168 -117 -208 -131
-46 -16 -212 -15 -283 2 -106 25 -214 98 -122 83 115 -20 119 -20 108 -8 -6 7
-50 21 -97 31 -48 11 -97 24 -109 31 -36 19 -88 61 -88 70 0 12 -5 12 92 -10z"/>
<path d="M5090 4410 c0 -14 85 -69 132 -86 25 -9 78 -16 124 -16 72 -1 90 3
149 31 38 17 66 34 63 37 -3 3 -43 -3 -89 -12 -106 -21 -189 -15 -297 25 -45
16 -82 26 -82 21z"/>
<path d="M2544 3040 c-114 -12 -154 -42 -154 -115 0 -75 98 -123 193 -95 85
25 137 87 137 163 0 59 -17 64 -176 47z"/>
<path d="M5435 3346 c-73 -33 -117 -122 -119 -241 -1 -98 16 -161 57 -210 37
-45 81 -65 142 -65 61 0 105 20 142 65 41 49 57 111 56 211 -1 121 -45 208
-120 240 -41 18 -119 17 -158 0z m132 -142 c20 -32 28 -129 14 -182 -14 -51
-46 -71 -89 -56 -67 23 -70 227 -4 260 31 15 60 7 79 -22z"/>
<path d="M9455 3040 c-117 -12 -160 -41 -160 -110 0 -44 24 -76 72 -96 100
-43 234 26 254 130 16 88 5 93 -166 76z"/>
<path d="M6417 3347 c-49 -16 -95 -61 -121 -117 -16 -35 -20 -66 -21 -136 0
-81 3 -96 30 -150 24 -45 41 -65 74 -83 57 -31 132 -33 186 -5 115 60 150 283
66 416 -44 69 -135 101 -214 75z"/>
</g>
</svg>
